# xmcd
#
# Track frame offsets:
#	150
#	21428
#	39277
#	58453
#	74644
#	92408
#	111729
#	138488
#	158465
#	170944
#	189410
#	208950
#	226488
#	251726
#	267890
#	285199
#	307827
#	321138
#	336859
#
# Disc length: 4723 seconds
#
# Revision: 1
# Processed by: cddbd v1.5.2PL0 Copyright (c) Steve Scherf et al.
# Submitted via: audiograbber 1.83.01
#
DISCID=1f127113
DTITLE=Various Artist - Country 21
DYEAR=2006
DGENRE=Country
TTITLE0=Who says you can't go home - Bon Jovi
TTITLE1=Suspicious minds -  Dwight Yoakam
TTITLE2=I am already there - Lonestar
TTITLE3=I loved her first - Heartland
TTITLE4=Every mile a memory - Dierks Bentley
TTITLE5=Who you'd be today - Kenny Chesney
TTITLE6=Once in a Lifetime - Keith Urban
TTITLE7=American Soldier - Toby Keith
TTITLE8=Dallas -  Alan Jackson
TTITLE9=This one's for the girls - Martina McBride
TTITLE10=you'll be there - Georger Strait
TTITLE11=How about you - Eric Church
TTITLE12=Backseat of a Greyhound bus - Sara Evans
TTITLE13=Calm before her storm - Paul Brandt
TTITLE14=As good as I once was - Toby Keith
TTITLE15=Picture - Sheryl Crow
TTITLE16=you're not in Kansas anymore - JoDee Messina
TTITLE17=What's going on in your world - George Strait
TTITLE18=A soft fine place to fall - Alison Moorer
EXTD=
EXTT0=
EXTT1=
EXTT2=
EXTT3=
EXTT4=
EXTT5=
EXTT6=
EXTT7=
EXTT8=
EXTT9=
EXTT10=
EXTT11=
EXTT12=
EXTT13=
EXTT14=
EXTT15=
EXTT16=
EXTT17=
EXTT18=
PLAYORDER=
